# xmcd
#
# Track frame offsets:
#	150
#	17800
#	35483
#	52543
#	72506
#	94581
#	112057
#	129364
#	146058
#	166252
#
# Disc length: 2473 seconds
#
# Revision: 0
# Processed by: cddbd v1.5.1PL0 Copyright (c) Steve Scherf et al.
# Submitted via: dBpowerAMP V4.0
#
DISCID=8209a70a
DTITLE=Various Artist - V Friends
DYEAR=1900
DGENRE=
TTITLE0=jeen - Track01
TTITLE1=jeen - Track02
TTITLE2=jeen - Track03
TTITLE3=jeen - Track04
TTITLE4=jeen - Track05
TTITLE5=jeen - Track06
TTITLE6=jeen - Track07
TTITLE7=jeen - Track08
TTITLE8=jeen - Track09
TTITLE9=jeen - Track10
EXTD=
EXTT0=
EXTT1=
EXTT2=
EXTT3=
EXTT4=
EXTT5=
EXTT6=
EXTT7=
EXTT8=
EXTT9=
PLAYORDER=
